<svg xmlns="http://www.w3.org/2000/svg" viewBox="0 0 32 32"><defs><style>.cls-1{fill:#38004d;}.cls-2{fill:#9f85ec;}</style></defs><title>Blockchain</title><g id="Blockchain"><path class="cls-1" d="M30.59,13.79a1,1,0,0,0,.39-.67c0-.3,0,1.24,0-8.12a1.1,1.1,0,0,0-.29-.7c-.15-.15.29.12-7.21-4.17a1,1,0,0,0-1,0l-7,4a1,1,0,0,0,0,1.74L22,9.58v5.7l-5.5-3.15a1,1,0,0,0-1,1.74L19.23,16,16,17.85l-4.75-2.72a1,1,0,1,0-1,1.74L14,19,9,21.85,4,19l3.73-2.13a1,1,0,0,0-1-1.74c-5.69,3.25-5.45,3-5.65,3.44S1,18.33,1,27a1,1,0,0,0,2,0V20.72l5,2.86v5.7L6,28.13a1,1,0,0,0-1,1.74c3.71,2.12,3.49,2,3.66,2.06.6.22.33.23,7.34-3.78,7,4,6.74,4,7.34,3.78.18-.07,7-3.95,7.25-4.14a1,1,0,0,0,.39-.67c0-.3,0,1.24,0-8.12a1.1,1.1,0,0,0-.29-.7c-.14-.15.1,0-3.94-2.3C31.29,13.42,30.37,14,30.59,13.79ZM24,15.28V9.58l5-2.86v5.7ZM23,2.15,28,5,23,7.85,18,5Zm6,24.27-5,2.86v-5.7l5-2.86Zm-7,2.86-5-2.86v-5.7l5,2.86Zm-7-8.56v5.7l-5,2.86v-5.7ZM28,19l-5,2.85L18,19l3.23-1.85c2,1.12,1.5,1.14,3.5,0Z"/><path class="cls-2" d="M17,13.12c0-.3,0,1.24,0-8.12a1.18,1.18,0,0,0-.1-.43c-.2-.42.11-.14-7.4-4.44a1,1,0,0,0-1,0c-7.67,4.39-7.25,4-7.43,4.52C1,4.93,1,4.23,1,13a2.71,2.71,0,0,0,.07.32,1.32,1.32,0,0,0,.18.33l.25.22C9,18.15,8.64,18,9,18s0,.15,7.5-4.13l.25-.22A1,1,0,0,0,17,13.12ZM3,6.72,8,9.58v5.7L3,12.42Zm7,2.86,5-2.86v5.7l-5,2.86ZM9,2.15,14,5,9,7.85,4,5Z"/></g></svg>