<svg xmlns="http://www.w3.org/2000/svg" viewBox="0 0 32 32"><defs><style>.cls-1{fill:#38004d;}.cls-2{fill:#9f85ec;}</style></defs><title>Blocks</title><g id="Blocks"><path class="cls-1" d="M16,13.12c0-.3,0,1.26,0-8.12a1.18,1.18,0,0,0-.1-.43c-.2-.42.11-.14-7.4-4.44a1,1,0,0,0-1,0C-.16,4.51.25,4.16.07,4.66,0,4.93,0,4.23,0,13a2.71,2.71,0,0,0,.07.32,1.48,1.48,0,0,0,.18.33l.25.22C8,18.13,7.63,18,8,18s.08.11,7.5-4.13l.25-.22A1,1,0,0,0,16,13.12ZM2,6.72,7,9.58v5.7L2,12.42ZM9,9.58l5-2.86v5.7L9,15.28ZM8,2.15,13,5,8,7.85,3,5Z"/><path class="cls-1" d="M32,27.12c0-.3,0,1.26,0-8.12a1.18,1.18,0,0,0-.1-.43c-.2-.42.11-.14-7.4-4.44a1,1,0,0,0-1,0c-7.66,4.38-7.25,4-7.43,4.53C16,18.93,16,18.23,16,27a2.71,2.71,0,0,0,.07.32,1.48,1.48,0,0,0,.18.33l.25.22C24,32.13,23.63,32,24,32s.08.11,7.5-4.13l.25-.22A1,1,0,0,0,32,27.12Zm-14-6.4,5,2.86v5.7l-5-2.86Zm7,2.86,5-2.86v5.7l-5,2.86Zm-1-7.43L29,19l-5,2.85L19,19Z"/><path class="cls-2" d="M24,12a1,1,0,0,1-1-1V9a2,2,0,0,0-2-2H19a1,1,0,0,1,0-2h2a4,4,0,0,1,4,4v2A1,1,0,0,1,24,12Z"/><path class="cls-2" d="M13,27H11a4,4,0,0,1-4-4V21a1,1,0,0,1,2,0v2a2,2,0,0,0,2,2h2a1,1,0,0,1,0,2Z"/></g></svg>