<svg xmlns="http://www.w3.org/2000/svg" viewBox="0 0 32 32"><defs><style>.cls-1{fill:#38004d;}.cls-2{fill:#9f85ec;}</style></defs><title>Computer</title><g id="Computer"><path class="cls-1" d="M31,18a1,1,0,0,0,1-1V3a3,3,0,0,0-3-3H3A3,3,0,0,0,0,3V23a3,3,0,0,0,3,3h7.91a6.68,6.68,0,0,1-2.32,4H7a1,1,0,0,0,0,2H25.2a1,1,0,1,0,0-2H23.41a6.64,6.64,0,0,1-2.32-4H29a3,3,0,0,0,3-3V21a1,1,0,0,0-1-1H2V3A1,1,0,0,1,3,2H29a1,1,0,0,1,1,1V17A1,1,0,0,0,31,18ZM20.69,30H11.31a8.22,8.22,0,0,0,1.61-4h6.16A8.22,8.22,0,0,0,20.69,30ZM30,22v1a1,1,0,0,1-1,1H3a1,1,0,0,1-1-1V22Z"/><path class="cls-2" d="M22,8a1.13,1.13,0,0,0-.1-.42c-.19-.4,0-.19-5.39-3.44a1,1,0,0,0-1,0c-5.27,3.16-5.24,3-5.42,3.51C10,7.93,10,7.4,10,14l.06.31a1.19,1.19,0,0,0,.19.33,2.19,2.19,0,0,0,.24.22C15.83,18.06,15.62,18,16,18s.16.07,5.51-3.14a2.19,2.19,0,0,0,.24-.22C22.14,14.19,22,13.91,22,8ZM12,9.77l3,1.8v3.66l-3-1.8Zm5,1.8,3-1.8v3.66l-3,1.8Zm-1-5.4L19.06,8,16,9.83,12.94,8Z"/></g></svg>