<svg xmlns="http://www.w3.org/2000/svg" viewBox="0 0 32 32"><defs><style>.cls-1{fill:#38004d;}.cls-2{fill:#9f85ec;}</style></defs><title>Document</title><g id="Document"><path class="cls-1" d="M28,10c0-3,0-3.14-.1-3.42a1,1,0,0,0-.19-.29l-6-6A1.06,1.06,0,0,0,21.06,0C20.76,0,22,0,7,0A3,3,0,0,0,4,3V8a3,3,0,0,0-3,3V29a3,3,0,0,0,3,3H8a1,1,0,0,0,0-2H4a1,1,0,0,1-1-1V11a1,1,0,0,1,1-1h6.17a6.84,6.84,0,0,1,1.71.29c.9.91,1.52,1.71,2.95,1.71H28a1,1,0,0,1,1,1V29a1,1,0,0,1-1,1H12a1,1,0,0,0,0,2H28a3,3,0,0,0,3-3V13A3,3,0,0,0,28,10ZM22,3.41,24.59,6H22ZM13.29,8.88c-.81-.81-3.1-.88-3.12-.88H6V3A1,1,0,0,1,7,2H20V7a1,1,0,0,0,1,1h5v2H14.83C14.31,10,14.15,9.73,13.29,8.88Z"/><path class="cls-2" d="M21.93,17.65c-.17-.47,0-.28-5.42-3.51a1,1,0,0,0-1,0c-5.39,3.24-5.2,3-5.39,3.44S10,17.48,10,24a1,1,0,0,0,.49.86c5.08,3.05,4.89,2.94,5.08,3a.9.9,0,0,0,.86,0c.19-.09-.05.05,5.08-3A1,1,0,0,0,22,24C22,17.47,22,17.92,21.93,17.65ZM16,16.17,19.06,18,16,19.83,12.94,18Zm-4,3.6,3,1.8v3.66l-3-1.8Zm5,5.46V21.57l3-1.8v3.66Z"/></g></svg>