<svg xmlns="http://www.w3.org/2000/svg" viewBox="0 0 32 32"><defs><style>.cls-1{fill:#38004d;}.cls-2{fill:#9f85ec;}</style></defs><title>Key</title><g id="Key"><path class="cls-1" d="M27,14c-2.34,0-2.5.08-2.88-.29l-1.78-1.78A7.17,7.17,0,0,0,22.92,10H25a1,1,0,0,0,0-2H22.92a7.12,7.12,0,0,0-.57-1.94C24.28,4.14,24.29,4,24.83,4H27a1,1,0,0,0,0-2H24.83a3,3,0,0,0-2.12.88L21.23,4.36a7,7,0,0,0-10.46,0L9.29,2.88A3,3,0,0,0,7.17,2H5A1,1,0,0,0,5,4H7.17c.55,0,.6.18,2.48,2.07A5.46,5.46,0,0,0,9.09,8H7a1,1,0,0,0,0,2H9.08a7.1,7.1,0,0,0,.56,1.94C7.73,13.85,7.71,14,7.17,14H5a1,1,0,0,0,0,2H7.17a3,3,0,0,0,2.12-.88l1.47-1.47C12.08,15.11,13,15,13,15.87V19a1,1,0,0,0,2,0V15.87a3,3,0,0,0-1.52-2.56,5,5,0,1,1,5,0A2.94,2.94,0,0,0,17,15.86V21c0,.55.27.69,1.59,2l-1.3,1.29a1,1,0,0,0,0,1.42L18.59,27l-2.43,2.43L15,27.7V23a1,1,0,0,0-2,0v5c0,.41,0,.27,2.17,3.55a1,1,0,0,0,1.54.16l4-4a1,1,0,0,0,0-1.42L19.41,25l1.3-1.29a1,1,0,0,0,0-1.42L19,20.59V15.86c0-.87.84-.67,2.22-2.23l1.49,1.49a3,3,0,0,0,2.12.88H27a1,1,0,0,0,0-2Z"/><path class="cls-2" d="M16,11a1,1,0,0,1-1-1V8a1,1,0,0,1,2,0v2A1,1,0,0,1,16,11Z"/><path class="cls-2" d="M29,6a3,3,0,1,1,3-3A3,3,0,0,1,29,6Zm0-4a1,1,0,1,0,1,1A1,1,0,0,0,29,2Z"/><path class="cls-2" d="M29,18a3,3,0,1,1,3-3A3,3,0,0,1,29,18Zm0-4a1,1,0,1,0,1,1A1,1,0,0,0,29,14Z"/><path class="cls-2" d="M3,6A3,3,0,1,1,6,3,3,3,0,0,1,3,6ZM3,2A1,1,0,1,0,4,3,1,1,0,0,0,3,2Z"/><path class="cls-2" d="M3,18a3,3,0,1,1,3-3A3,3,0,0,1,3,18Zm0-4a1,1,0,1,0,1,1A1,1,0,0,0,3,14Z"/></g></svg>