<svg xmlns="http://www.w3.org/2000/svg" viewBox="0 0 32 32"><defs><style>.cls-1{fill:#9f85ec;}.cls-2{fill:#38004d;}</style></defs><title>Peer to Peer</title><g id="Peer_to_Peer" data-name="Peer to Peer"><path class="cls-1" d="M6,19a1,1,0,0,1-1-1V11A3,3,0,0,1,8,8h3a1,1,0,0,1,0,2H8a1,1,0,0,0-1,1v7A1,1,0,0,1,6,19Z"/><path class="cls-1" d="M26,19a1,1,0,0,1-1-1V11a1,1,0,0,0-1-1H21a1,1,0,0,1,0-2h3a3,3,0,0,1,3,3v7A1,1,0,0,1,26,19Z"/><path class="cls-1" d="M21,26H11a1,1,0,0,1,0-2H21a1,1,0,0,1,0,2Z"/><path class="cls-2" d="M11,12a1,1,0,0,1-1-1V5a1,1,0,0,1,2,0v6A1,1,0,0,1,11,12Z"/><path class="cls-2" d="M21,12a1,1,0,0,1-1-1V5a1,1,0,0,1,2,0v6A1,1,0,0,1,21,12Z"/><path class="cls-2" d="M20.49,10.14,17,12.23V8.57l4.51-2.71a1,1,0,0,0,0-1.72l-5-3a1,1,0,0,0-1,0l-5,3a1,1,0,0,0,0,1.72L15,8.57v3.66l-3.49-2.09a1,1,0,1,0-1,1.72c5.41,3.25,5,3,5.17,3.07a.89.89,0,0,0,.68,0c.18-.07,0,0,5.17-3.07a1,1,0,0,0-1-1.72ZM16,3.17,19.06,5,16,6.83,12.94,5Z"/><path class="cls-2" d="M11,28a1,1,0,0,1-1-1V21a1,1,0,0,1,2,0v6A1,1,0,0,1,11,28Z"/><path class="cls-2" d="M10.49,26.14,7,28.23V24.57l4.51-2.71a1,1,0,0,0,0-1.72l-5-3a1,1,0,0,0-1,0C.13,20.36.25,20.18.07,20.65,0,20.93,0,20.4,0,27a1,1,0,0,0,2,0V22.77l3,1.8v3.66l-.15-.09a1,1,0,0,0-1,1.72C5.54,30.89,5.65,31,6,31s.19.05,5.51-3.14a1,1,0,1,0-1-1.72ZM6,19.17,9.06,21,6,22.83,2.94,21Z"/><path class="cls-2" d="M21,28a1,1,0,0,1-1-1V21a1,1,0,0,1,2,0v6A1,1,0,0,1,21,28Z"/><path class="cls-2" d="M32,27.11c0-.27,0,1,0-6.11a1.13,1.13,0,0,0-.1-.42c-.19-.4,0-.21-5.39-3.44a1,1,0,0,0-1,0l-5,3a1,1,0,0,0,0,1.72L25,24.57v3.66l-3.49-2.09a1,1,0,1,0-1,1.72c5.41,3.25,5,3,5.17,3.07a.89.89,0,0,0,.68,0l.17-.07C31.56,27.83,31.9,27.8,32,27.11Zm-5-2.54,3-1.8v3.66l-3,1.8Zm-1-5.4L29.06,21,26,22.83,22.94,21Z"/></g></svg>