<svg xmlns="http://www.w3.org/2000/svg" viewBox="0 0 32 32"><defs><style>.cls-1{fill:#9f85ec;}.cls-2{fill:#38004d;}</style></defs><title>Wallet</title><g id="Wallet"><path class="cls-1" d="M10.45,9.11,7,7.38V5.82a3,3,0,1,0-2,0V8a1,1,0,0,0,.55.89L9,10.62V13a1,1,0,0,0,2,0V10A1,1,0,0,0,10.45,9.11ZM6,2A1,1,0,1,1,5,3,1,1,0,0,1,6,2Z"/><path class="cls-1" d="M16,0a3,3,0,0,0-1,5.83C15,6.11,15,5,15,13a1,1,0,0,0,2,0c0-8,0-6.89,0-7.17A3,3,0,0,0,16,0Zm0,4a1,1,0,1,1,1-1A1,1,0,0,1,16,4Z"/><path class="cls-1" d="M29,3a3,3,0,1,0-4,2.82V7.38L21.55,9.11A1,1,0,0,0,21,10v3a1,1,0,0,0,2,0V10.62l3.45-1.73A1,1,0,0,0,27,8V5.82A3,3,0,0,0,29,3ZM26,4a1,1,0,1,1,1-1A1,1,0,0,1,26,4Z"/><path class="cls-2" d="M28,18V15a3,3,0,0,0-3-3H5a3,3,0,0,0-3,3V29a3,3,0,0,0,3,3H9a1,1,0,0,0,0-2H5a1,1,0,0,1-1-1V15a1,1,0,0,1,1-1H25a1,1,0,0,1,1,1v3H24a4,4,0,0,0,0,8h2v3a1,1,0,0,1-1,1H13a1,1,0,0,0,0,2H25a3,3,0,0,0,3-3V26a2,2,0,0,0,2-2V20A2,2,0,0,0,28,18Zm0,6H24a2,2,0,0,1,0-4h4Z"/></g></svg>